<svg width="11" height="12" viewBox="0 0 11 12" fill="none" xmlns="http://www.w3.org/2000/svg">
<path d="M8.854 8.49657C8.43486 8.49657 8.05984 8.66202 7.77306 8.92122L3.84087 6.6325C3.86844 6.50565 3.8905 6.37881 3.8905 6.24645C3.8905 6.11409 3.86844 5.98724 3.84087 5.8604L7.72894 3.59373C8.02675 3.86948 8.41832 4.04045 8.854 4.04045C9.76949 4.04045 10.5085 3.30144 10.5085 2.38595C10.5085 1.47046 9.76949 0.731445 8.854 0.731445C7.93851 0.731445 7.1995 1.47046 7.1995 2.38595C7.1995 2.51831 7.22156 2.64515 7.24914 2.772L3.36106 5.03866C3.06325 4.76291 2.67169 4.59195 2.236 4.59195C1.32051 4.59195 0.581501 5.33096 0.581501 6.24645C0.581501 7.16194 1.32051 7.90095 2.236 7.90095C2.67169 7.90095 3.06325 7.72998 3.36106 7.45423L7.28774 9.74847C7.26017 9.86429 7.24362 9.98562 7.24362 10.1069C7.24362 10.9949 7.96609 11.7173 8.854 11.7173C9.74192 11.7173 10.4644 10.9949 10.4644 10.1069C10.4644 9.21903 9.74192 8.49657 8.854 8.49657Z" fill="white"/>
</svg>
